<mxfile host="app.diagrams.net" modified="2024-02-26T16:49:36.806Z" agent="Mozilla/5.0 (Windows NT 10.0; Win64; x64) AppleWebKit/537.36 (KHTML, like Gecko) Chrome/122.0.0.0 Safari/537.36" etag="ixC1Phjc_-PngZFiCYnY" version="23.1.6" type="device">
  <diagram name="Page-1" id="823aNyvLbyBQqBodMqZG">
    <mxGraphModel dx="1500" dy="746" grid="1" gridSize="10" guides="1" tooltips="1" connect="1" arrows="1" fold="1" page="1" pageScale="1" pageWidth="827" pageHeight="1169" math="0" shadow="0">
      <root>
        <mxCell id="0" />
        <mxCell id="1" parent="0" />
        <mxCell id="33RtKYd7d7kExoBThZ8Z-26" style="edgeStyle=orthogonalEdgeStyle;rounded=0;orthogonalLoop=1;jettySize=auto;html=1;exitX=0.5;exitY=1;exitDx=0;exitDy=0;entryX=0.5;entryY=0;entryDx=0;entryDy=0;" edge="1" parent="1" source="4AcnSKAXtkUhWrs8ty6k-1" target="33RtKYd7d7kExoBThZ8Z-25">
          <mxGeometry relative="1" as="geometry" />
        </mxCell>
        <mxCell id="4AcnSKAXtkUhWrs8ty6k-1" value="&lt;font style=&quot;font-size: 17px;&quot; face=&quot;Garamond&quot;&gt;Début&lt;/font&gt;" style="ellipse;whiteSpace=wrap;html=1;" parent="1" vertex="1">
          <mxGeometry x="374" y="10" width="80" height="40" as="geometry" />
        </mxCell>
        <mxCell id="33RtKYd7d7kExoBThZ8Z-4" style="edgeStyle=orthogonalEdgeStyle;rounded=0;orthogonalLoop=1;jettySize=auto;html=1;exitX=0.5;exitY=1;exitDx=0;exitDy=0;entryX=0.5;entryY=0;entryDx=0;entryDy=0;" edge="1" parent="1" source="33RtKYd7d7kExoBThZ8Z-1" target="33RtKYd7d7kExoBThZ8Z-3">
          <mxGeometry relative="1" as="geometry">
            <mxPoint x="414" y="245" as="sourcePoint" />
          </mxGeometry>
        </mxCell>
        <mxCell id="33RtKYd7d7kExoBThZ8Z-1" value="Capturer image avec la caméra" style="shape=parallelogram;perimeter=parallelogramPerimeter;whiteSpace=wrap;html=1;fixedSize=1;" vertex="1" parent="1">
          <mxGeometry x="334" y="160" width="160" height="60" as="geometry" />
        </mxCell>
        <mxCell id="33RtKYd7d7kExoBThZ8Z-6" value="" style="edgeStyle=orthogonalEdgeStyle;rounded=0;orthogonalLoop=1;jettySize=auto;html=1;" edge="1" parent="1" source="33RtKYd7d7kExoBThZ8Z-3" target="33RtKYd7d7kExoBThZ8Z-5">
          <mxGeometry relative="1" as="geometry" />
        </mxCell>
        <mxCell id="33RtKYd7d7kExoBThZ8Z-3" value="Recherche de visages dans l&#39;image" style="rounded=0;whiteSpace=wrap;html=1;" vertex="1" parent="1">
          <mxGeometry x="354" y="250" width="120" height="60" as="geometry" />
        </mxCell>
        <mxCell id="33RtKYd7d7kExoBThZ8Z-10" style="edgeStyle=orthogonalEdgeStyle;rounded=0;orthogonalLoop=1;jettySize=auto;html=1;exitX=0;exitY=0.5;exitDx=0;exitDy=0;entryX=0;entryY=0.5;entryDx=0;entryDy=0;" edge="1" parent="1" source="33RtKYd7d7kExoBThZ8Z-5" target="33RtKYd7d7kExoBThZ8Z-1">
          <mxGeometry relative="1" as="geometry">
            <mxPoint x="344" y="215" as="targetPoint" />
            <Array as="points">
              <mxPoint x="210" y="400" />
              <mxPoint x="210" y="190" />
            </Array>
          </mxGeometry>
        </mxCell>
        <mxCell id="33RtKYd7d7kExoBThZ8Z-11" value="Non" style="edgeLabel;html=1;align=center;verticalAlign=middle;resizable=0;points=[];" vertex="1" connectable="0" parent="33RtKYd7d7kExoBThZ8Z-10">
          <mxGeometry x="-0.7393" y="-1" relative="1" as="geometry">
            <mxPoint x="41" y="1" as="offset" />
          </mxGeometry>
        </mxCell>
        <mxCell id="33RtKYd7d7kExoBThZ8Z-13" value="" style="edgeStyle=orthogonalEdgeStyle;rounded=0;orthogonalLoop=1;jettySize=auto;html=1;" edge="1" parent="1" source="33RtKYd7d7kExoBThZ8Z-5" target="33RtKYd7d7kExoBThZ8Z-12">
          <mxGeometry relative="1" as="geometry" />
        </mxCell>
        <mxCell id="33RtKYd7d7kExoBThZ8Z-14" value="Oui" style="edgeLabel;html=1;align=center;verticalAlign=middle;resizable=0;points=[];" vertex="1" connectable="0" parent="33RtKYd7d7kExoBThZ8Z-13">
          <mxGeometry x="-0.4885" relative="1" as="geometry">
            <mxPoint y="2" as="offset" />
          </mxGeometry>
        </mxCell>
        <mxCell id="33RtKYd7d7kExoBThZ8Z-5" value="Visage présent dans l&#39;image ?" style="rhombus;whiteSpace=wrap;html=1;" vertex="1" parent="1">
          <mxGeometry x="339" y="345" width="149" height="110" as="geometry" />
        </mxCell>
        <mxCell id="33RtKYd7d7kExoBThZ8Z-16" value="" style="edgeStyle=orthogonalEdgeStyle;rounded=0;orthogonalLoop=1;jettySize=auto;html=1;" edge="1" parent="1" source="33RtKYd7d7kExoBThZ8Z-12" target="33RtKYd7d7kExoBThZ8Z-15">
          <mxGeometry relative="1" as="geometry" />
        </mxCell>
        <mxCell id="33RtKYd7d7kExoBThZ8Z-20" value="Oui" style="edgeLabel;html=1;align=center;verticalAlign=middle;resizable=0;points=[];" vertex="1" connectable="0" parent="33RtKYd7d7kExoBThZ8Z-16">
          <mxGeometry x="-0.4093" y="3" relative="1" as="geometry">
            <mxPoint x="2" y="3" as="offset" />
          </mxGeometry>
        </mxCell>
        <mxCell id="33RtKYd7d7kExoBThZ8Z-18" value="" style="edgeStyle=orthogonalEdgeStyle;rounded=0;orthogonalLoop=1;jettySize=auto;html=1;" edge="1" parent="1" source="33RtKYd7d7kExoBThZ8Z-12" target="33RtKYd7d7kExoBThZ8Z-17">
          <mxGeometry relative="1" as="geometry" />
        </mxCell>
        <mxCell id="33RtKYd7d7kExoBThZ8Z-19" value="Non" style="edgeLabel;html=1;align=center;verticalAlign=middle;resizable=0;points=[];" vertex="1" connectable="0" parent="33RtKYd7d7kExoBThZ8Z-18">
          <mxGeometry x="-0.1603" y="-1" relative="1" as="geometry">
            <mxPoint as="offset" />
          </mxGeometry>
        </mxCell>
        <mxCell id="33RtKYd7d7kExoBThZ8Z-12" value="Visage connu ?" style="rhombus;whiteSpace=wrap;html=1;" vertex="1" parent="1">
          <mxGeometry x="358.5" y="485" width="111" height="60" as="geometry" />
        </mxCell>
        <mxCell id="33RtKYd7d7kExoBThZ8Z-15" value="Mettre le numéro du visage dans message" style="whiteSpace=wrap;html=1;" vertex="1" parent="1">
          <mxGeometry x="530" y="485" width="95" height="60" as="geometry" />
        </mxCell>
        <mxCell id="33RtKYd7d7kExoBThZ8Z-32" style="edgeStyle=orthogonalEdgeStyle;rounded=0;orthogonalLoop=1;jettySize=auto;html=1;exitX=0.5;exitY=1;exitDx=0;exitDy=0;entryX=0.454;entryY=0.006;entryDx=0;entryDy=0;entryPerimeter=0;" edge="1" parent="1" source="33RtKYd7d7kExoBThZ8Z-17" target="33RtKYd7d7kExoBThZ8Z-28">
          <mxGeometry relative="1" as="geometry">
            <Array as="points">
              <mxPoint x="247" y="578" />
              <mxPoint x="408" y="578" />
              <mxPoint x="408" y="610" />
            </Array>
          </mxGeometry>
        </mxCell>
        <mxCell id="33RtKYd7d7kExoBThZ8Z-17" value="Mettre &quot;U&quot; dans message" style="whiteSpace=wrap;html=1;" vertex="1" parent="1">
          <mxGeometry x="210" y="485" width="73" height="60" as="geometry" />
        </mxCell>
        <mxCell id="33RtKYd7d7kExoBThZ8Z-27" style="edgeStyle=orthogonalEdgeStyle;rounded=0;orthogonalLoop=1;jettySize=auto;html=1;entryX=0.5;entryY=0;entryDx=0;entryDy=0;" edge="1" parent="1" source="33RtKYd7d7kExoBThZ8Z-25" target="33RtKYd7d7kExoBThZ8Z-1">
          <mxGeometry relative="1" as="geometry" />
        </mxCell>
        <mxCell id="33RtKYd7d7kExoBThZ8Z-25" value="Se connecter à l&#39;ordinateur via WiFi" style="whiteSpace=wrap;html=1;" vertex="1" parent="1">
          <mxGeometry x="354" y="90" width="120" height="40" as="geometry" />
        </mxCell>
        <mxCell id="33RtKYd7d7kExoBThZ8Z-34" style="edgeStyle=orthogonalEdgeStyle;rounded=0;orthogonalLoop=1;jettySize=auto;html=1;exitX=0.5;exitY=1;exitDx=0;exitDy=0;entryX=1;entryY=0.5;entryDx=0;entryDy=0;" edge="1" parent="1" source="33RtKYd7d7kExoBThZ8Z-28" target="33RtKYd7d7kExoBThZ8Z-1">
          <mxGeometry relative="1" as="geometry">
            <Array as="points">
              <mxPoint x="414" y="690" />
              <mxPoint x="660" y="690" />
              <mxPoint x="660" y="190" />
            </Array>
          </mxGeometry>
        </mxCell>
        <mxCell id="33RtKYd7d7kExoBThZ8Z-28" value="Envoyer le contenu de message à l&#39;ordinateur" style="rounded=0;whiteSpace=wrap;html=1;" vertex="1" parent="1">
          <mxGeometry x="354" y="610" width="120" height="60" as="geometry" />
        </mxCell>
        <mxCell id="33RtKYd7d7kExoBThZ8Z-33" style="edgeStyle=orthogonalEdgeStyle;rounded=0;orthogonalLoop=1;jettySize=auto;html=1;exitX=0.5;exitY=1;exitDx=0;exitDy=0;entryX=0.554;entryY=-0.002;entryDx=0;entryDy=0;entryPerimeter=0;" edge="1" parent="1" source="33RtKYd7d7kExoBThZ8Z-15" target="33RtKYd7d7kExoBThZ8Z-28">
          <mxGeometry relative="1" as="geometry" />
        </mxCell>
      </root>
    </mxGraphModel>
  </diagram>
</mxfile>
